# xmcd
#
# Track frame offsets: 
#        150
#        18114
#        33078
#        49981
#        64631
#        80203
#        96545
#        109497
#        124902
#        141409
#        157688
#        172918
#        188552
#        200798
#        214601
#        231302
#        243874
#        262653
#        277450
#        290465
#
# Disc length: 4074 seconds
#
# Revision: 0
# Processed by: cddbd v1.5.2PL0 Copyright (c) Steve Scherf et al.
# Submitted via: ExactAudioCopy v1.1
#
DISCID=260fe814
DTITLE=Various Artist - 100 x Zomer 2017 - CD 3
DYEAR=2017
DGENRE=Pop
TTITLE0=Machine Gun Kelly Feat. Camila Cabello - Bad Things
TTITLE1=Fais and Afrojack - Used To Have It All
TTITLE2=Ariana Grande Feat. Nicki Minaj - Side To Side
TTITLE3=Jonas Blue Feat. JP Cooper - Perfect Strangers
TTITLE4=Bastille - Good Grief
TTITLE5=Shakira Feat. Wyclef Jean - Hips Don't Lie
TTITLE6=Kygo Feat. Julia Michaels - Carry Me
TTITLE7=James Bay - Best Fake Smile
TTITLE8=Robin Schulz Feat. Francesco Yates - Sugar
TTITLE9=Selena Gomez - Kill Em With Kindness
TTITLE10=Kensington - Do I Ever
TTITLE11=Willy William - Ego
TTITLE12=Pharrell Williams - Freedom
TTITLE13=Ali B. Feat. Kenny B and Brace - Let's Go
TTITLE14=George Benson - Give Me The Night
TTITLE15=Nevada Feat. Mark Morrison and Fetty Wap - The Mack
TTITLE16=Jimmy Cliff - Reggae Night
TTITLE17=Kent Jones - Don't Mind
TTITLE18=Alfons - Ganjaman
TTITLE19=Martin Solveig Feat. Ina Wroldsen - Places
EXTD=
EXTT0=
EXTT1=
EXTT2=
EXTT3=
EXTT4=
EXTT5=
EXTT6=
EXTT7=
EXTT8=
EXTT9=
EXTT10=
EXTT11=
EXTT12=
EXTT13=
EXTT14=
EXTT15=
EXTT16=
EXTT17=
EXTT18=
EXTT19=
PLAYORDER=
